<svg aria-hidden="true" style="position: absolute; width: 0; height: 0; overflow: hidden;" version="1.1" xmlns="http://www.w3.org/2000/svg" xmlns:xlink="http://www.w3.org/1999/xlink">
<defs>
<symbol id="icon-close" viewBox="0 0 32 32">
<path fill="#fff" style="fill: var(--color1, #fff)" d="M23.884 6.706l-7.884 7.884-7.884-7.884c-0.19-0.174-0.439-0.267-0.696-0.261s-0.502 0.11-0.684 0.292c-0.182 0.182-0.286 0.427-0.292 0.684s0.088 0.506 0.261 0.696l7.88 7.884-7.882 7.882c-0.096 0.092-0.173 0.202-0.226 0.324s-0.081 0.253-0.083 0.386 0.023 0.265 0.073 0.388c0.050 0.123 0.124 0.235 0.218 0.329s0.206 0.169 0.329 0.219 0.255 0.075 0.388 0.074c0.133-0.002 0.264-0.029 0.386-0.082s0.232-0.13 0.324-0.226l7.886-7.882 7.884 7.884c0.19 0.174 0.439 0.267 0.696 0.262s0.502-0.11 0.684-0.292c0.182-0.182 0.286-0.427 0.292-0.684s-0.088-0.506-0.262-0.696l-7.884-7.884 7.884-7.886c0.096-0.092 0.173-0.202 0.226-0.324s0.081-0.253 0.083-0.386c0.002-0.133-0.023-0.265-0.073-0.388s-0.124-0.235-0.218-0.329c-0.094-0.094-0.206-0.169-0.329-0.219s-0.255-0.075-0.388-0.074-0.264 0.029-0.386 0.082c-0.122 0.053-0.232 0.13-0.324 0.226v0.002z"></path>
</symbol>
<symbol id="icon-moda-menu-bt" viewBox="0 0 52 32">
<path fill="none" stroke="#fff" style="stroke: var(--color1, #fff)" stroke-linejoin="miter" stroke-linecap="round" stroke-miterlimit="4" stroke-width="4" d="M2 2h48"></path>
<path fill="none" stroke="#fff" style="stroke: var(--color1, #fff)" stroke-linejoin="miter" stroke-linecap="round" stroke-miterlimit="4" stroke-width="4" d="M2 16h48"></path>
<path fill="none" stroke="#fff" style="stroke: var(--color1, #fff)" stroke-linejoin="miter" stroke-linecap="round" stroke-miterlimit="4" stroke-width="4" d="M2 30h48"></path>
</symbol>
<symbol id="icon-dashicons_arrow-right" viewBox="0 0 32 32">
<path fill="#fff" style="fill: var(--color1, #fff)" d="M9.6 24l8-8-8-8 1.6-3.2 11.2 11.2-11.2 11.2-1.6-3.2z"></path>
</symbol>
<symbol id="icon-Ellipse-30" viewBox="0 0 32 32">
<path stroke-linejoin="miter" stroke-linecap="butt" stroke-miterlimit="4" stroke-width="0.8" d="M31.6 16c0 8.616-6.984 15.6-15.6 15.6s-15.6-6.984-15.6-15.6c0-8.616 6.984-15.6 15.6-15.6s15.6 6.984 15.6 15.6z"></path>
</symbol>
<symbol id="icon-twitter" viewBox="0 0 32 32">
<path stroke-linejoin="round" stroke-linecap="round" stroke-miterlimit="4" stroke-width="1.6" d="M30.134 5.599c-1.184 0.835-2.495 1.474-3.882 1.892-0.744-0.856-1.734-1.463-2.835-1.738s-2.26-0.206-3.32 0.198c-1.060 0.405-1.97 1.125-2.608 2.064s-0.971 2.051-0.956 3.185v1.236c-2.173 0.056-4.326-0.426-6.267-1.403s-3.611-2.419-4.86-4.198c0 0-4.945 11.127 6.182 16.073-2.546 1.728-5.58 2.595-8.655 2.473 11.127 6.182 24.727 0 24.727-14.218-0.001-0.344-0.034-0.688-0.099-1.026 1.262-1.244 2.152-2.816 2.572-4.537z"></path>
</symbol>
<symbol id="icon-facebook" viewBox="0 0 32 32">
<path stroke-linejoin="round" stroke-linecap="round" stroke-miterlimit="4" stroke-width="1.6" d="M22.4 2.667h-4c-1.768 0-3.464 0.702-4.714 1.953s-1.953 2.946-1.953 4.714v4h-4v5.333h4v10.667h5.333v-10.667h4l1.333-5.333h-5.333v-4c0-0.354 0.14-0.693 0.391-0.943s0.589-0.391 0.943-0.391h4v-5.333z"></path>
</symbol>
<symbol id="icon-Vector" viewBox="0 0 32 32">
<path stroke-linejoin="miter" stroke-linecap="butt" stroke-miterlimit="4" stroke-width="1.7778" d="M30.666 19.701v10.521h-4.663v-9.222c0-1.166-0.001-2.721-0.5-3.981-0.26-0.656-0.669-1.277-1.316-1.727-0.648-0.452-1.459-0.68-2.427-0.68-0.954 0-1.77 0.187-2.45 0.563-0.684 0.379-1.176 0.921-1.52 1.545-0.665 1.206-0.787 2.738-0.787 4.108v9.396h-4.666v-18.993h4.408v2.833h1.515l0.25-0.474c0.715-1.355 2.524-2.88 5.316-2.88 3.045 0 4.647 0.983 5.56 2.432 0.971 1.543 1.279 3.789 1.279 6.561zM6.52 30.222h-4.672v-18.993h4.672v18.993zM4.18 6.618c-1.56 0-2.847-1.3-2.847-2.882 0-0.755 0.3-1.479 0.834-2.013s1.258-0.834 2.013-0.834c0.755 0 1.479 0.3 2.013 0.834s0.834 1.258 0.834 2.013c0 1.582-1.286 2.882-2.847 2.882z"></path>
</symbol>
</defs>
</svg>
